<svg width="296" height="350" viewBox="0 0 296 350" fill="none" xmlns="http://www.w3.org/2000/svg">
<path d="M289.467 217.648C289.475 228.068 289.535 238.227 289.419 248.383C289.405 249.572 288.718 251.077 287.837 251.885C268.289 269.82 248.679 287.689 229.028 305.513C228.228 306.239 226.851 306.9 225.862 306.758C216.662 305.439 209.16 308.546 201.642 313.875C184.872 325.762 167.538 336.853 150.433 348.266C149.565 348.845 148.681 349.399 147.75 350C137.81 343.351 127.934 336.72 118.031 330.128C106.743 322.613 95.444 315.113 84.1017 307.679C83.1559 307.059 81.8504 306.745 80.7027 306.72C76.4241 306.627 71.7158 307.835 67.9818 306.415C64.3392 305.031 61.7106 301.009 58.6025 298.182C41.6952 282.807 24.7896 267.43 7.83819 252.104C6.56408 250.952 5.99677 249.818 6.00484 248.077C6.07295 233.366 6.01825 218.655 6.10617 203.944C6.11254 202.879 6.70209 201.586 7.44344 200.796C10.1972 197.861 13.1959 195.155 15.9468 192.218C16.6835 191.431 17.2456 190.127 17.2485 189.059C17.3126 165.591 17.3127 142.123 17.2065 118.656C17.2007 117.375 16.4603 115.812 15.5527 114.873C12.1486 111.349 8.58372 107.974 4.97025 104.662C3.63341 103.436 3.07304 102.168 3.08361 100.343C3.1744 84.6692 3.20377 68.9946 3.15882 53.3204C3.15483 51.9333 2.85207 50.2808 2.06063 49.2194C0.564963 47.2136 -0.0274789 45.1951 0.000974571 42.7053C0.128071 31.5856 0.0934053 20.4641 0.116735 9.34319C0.118531 8.48704 0.116968 7.63091 0.116968 6.63556C1.14257 6.57856 1.9052 6.49932 2.66786 6.4992C20.0936 6.49663 37.5195 6.52868 54.945 6.46843C56.7605 6.46216 58.0204 7.02061 59.3015 8.27723C63.2386 12.1387 67.3645 15.8076 71.3038 19.667C72.4714 20.8108 73.3795 20.7436 74.7435 20.1398C88.9738 13.8412 103.213 7.56075 117.507 1.40938C119.443 0.576154 121.694 0.115772 123.803 0.10005C140.177 -0.021932 156.552 -0.0171214 172.927 0.0339003C174.355 0.0383579 175.872 0.446451 177.195 1.01968C191.799 7.34735 206.387 13.7094 220.929 20.1766C222.436 20.8468 223.22 20.5905 224.286 19.5507C228.298 15.6392 232.351 11.7669 236.494 7.99557C237.31 7.25291 238.59 6.62433 239.661 6.61695C257.874 6.49142 276.088 6.47179 294.302 6.43462C294.559 6.43409 294.817 6.50785 295.452 6.60425C295.452 7.40919 295.45 8.25129 295.452 9.09338C295.481 20.9148 295.554 32.7365 295.477 44.5572C295.469 45.8177 294.843 47.2813 294.044 48.283C292.695 49.9726 292.263 51.7042 292.278 53.8295C292.392 69.4157 292.436 85.0028 292.377 100.589C292.372 101.805 291.711 103.299 290.858 104.183C287.272 107.898 283.428 111.363 279.841 115.077C278.992 115.957 278.335 117.444 278.331 118.655C278.256 142.035 278.265 165.415 278.373 188.795C278.379 190.087 279.107 191.629 279.99 192.615C282.439 195.351 285.079 197.929 287.783 200.417C289.138 201.663 289.591 202.985 289.537 204.78C289.411 208.979 289.478 213.183 289.467 217.648ZM27.7816 200.046C27.7772 215.017 27.8205 229.987 27.7132 244.957C27.6984 247.028 28.3846 248.351 29.88 249.643C36.9013 255.709 43.8649 261.842 50.8154 267.99C51.9205 268.967 52.9682 270.054 53.8461 271.236C57.1334 275.661 60.3206 280.16 63.5825 284.605C65.5435 287.276 67.0595 290.917 69.7161 292.256C72.3827 293.599 76.2214 292.539 79.5373 292.709C80.8648 292.777 82.351 293.02 83.4506 293.695C87.9961 296.487 92.4288 299.462 96.8892 302.391C113.85 313.528 130.805 324.673 147.765 335.817C166.573 323.467 185.488 311.312 204.085 298.689C210.406 294.399 216.678 291.488 224.45 292.51C225.351 292.629 226.74 291.753 227.353 290.928C231.895 284.819 236.28 278.595 240.757 272.437C241.677 271.172 242.651 269.898 243.811 268.865C251.068 262.403 258.35 255.969 265.709 249.624C267.245 248.3 267.81 246.936 267.805 244.91C267.705 200.786 267.665 156.661 267.699 112.537C267.7 111.321 268.366 109.849 269.202 108.938C272.22 105.653 275.391 102.501 278.617 99.4179C279.918 98.1749 280.461 96.901 280.457 95.0797C280.394 70.4785 280.407 45.8771 280.395 21.2758C280.395 20.5996 280.321 19.9235 280.281 19.2519C279.882 19.1484 279.639 19.0306 279.396 19.0302C267.227 19.0122 255.057 18.9767 242.888 19.0512C241.987 19.0567 240.928 19.682 240.219 20.3249C236.137 24.0313 232.035 27.7281 228.157 31.6439C226.458 33.3603 225.107 33.4691 222.97 32.5082C207.426 25.5161 191.827 18.6443 176.223 11.7852C175.144 11.3107 173.886 11.026 172.709 11.0219C156.163 10.9644 139.616 10.9509 123.069 10.9997C121.721 11.0036 120.278 11.3173 119.043 11.8609C103.203 18.8352 87.3813 25.8519 71.5945 32.9457C70.1299 33.6038 69.273 33.3887 68.1858 32.3558C63.998 28.3771 59.7953 24.4088 55.4525 20.6027C54.4596 19.7326 52.8915 19.0966 51.579 19.0803C41.5124 18.9552 31.4435 19.0099 21.3754 19.0088C19.3843 19.0085 17.3933 19.0087 15.3265 19.0087C15.2422 19.5746 15.1502 19.9041 15.15 20.2337C15.1397 45.5355 15.1214 70.8372 15.1913 96.1388C15.194 97.1134 15.8428 98.2832 16.5461 99.025C19.6166 102.264 22.7656 105.433 25.9987 108.51C27.3029 109.751 27.8364 111.029 27.8328 112.847C27.7753 141.738 27.787 170.63 27.7816 200.046Z" fill="#F4A83B"/>
<path d="M205.662 87.6817C206.13 87.4088 206.419 87.189 206.744 87.0765C214.298 84.4647 217.545 78.8297 219.102 71.2377C220.766 63.1268 223.468 55.2239 225.859 47.2731C226.185 46.19 227.14 44.9131 228.135 44.472C242.038 38.3082 255.998 32.272 269.949 26.2189C270.399 26.0239 270.914 25.98 271.745 25.7839C271.248 31.7584 270.84 37.5038 270.28 43.2344C268.45 61.9571 266.432 80.6629 264.804 99.4028C264.454 103.435 262.918 105.639 259.476 107.649C229.348 125.247 199.331 143.033 169.317 160.824C168.384 161.377 167.552 162.488 167.176 163.522C165.864 167.123 165.585 171.441 163.366 174.273C161.203 177.033 156.886 177.984 153.972 180.304C149.707 183.7 146.042 183.675 141.787 180.275C138.813 177.898 134.465 176.896 132.185 174.096C129.971 171.376 129.743 167.095 128.366 163.609C127.878 162.373 126.77 161.131 125.615 160.445C95.0956 142.316 64.542 124.244 33.9546 106.23C32.123 105.151 31.1938 103.946 30.9945 101.795C29.0733 81.0564 27.0588 60.327 25.0853 39.5936C24.6552 35.0751 24.2819 30.5511 23.8415 25.5664C24.9824 25.9517 25.7751 26.1547 26.5147 26.4787C40.0473 32.408 53.5893 38.3168 67.0716 44.3588C68.1533 44.8436 69.2552 46.1335 69.602 47.2757C72.877 58.0622 75.9466 68.9111 79.2117 79.7008C79.5706 80.8868 80.5665 82.1899 81.6326 82.8061C103.134 95.2358 124.699 107.555 146.21 119.969C147.623 120.784 148.548 120.453 149.755 119.759C168.325 109.082 186.914 98.4371 205.662 87.6817Z" fill="#F4A83B"/>
<path d="M173.009 17.1288C174.776 16.8677 175.643 17.5598 176.292 18.9392C177.894 22.3403 179.479 25.7644 181.346 29.0212C182.785 31.5307 182.996 34.0002 182.602 36.7944C179.808 56.6325 177.124 76.4862 174.356 96.328C174.238 97.1745 173.863 98.3211 173.229 98.7088C164.803 103.861 156.31 108.903 147.805 113.989C139.42 108.956 131.084 103.988 122.808 98.9202C122.064 98.4645 121.354 97.4151 121.234 96.5568C118.381 76.1076 115.582 55.6507 112.888 35.18C112.687 33.6542 113.054 31.8847 113.675 30.4528C115.341 26.6054 117.353 22.9088 119.093 19.0911C119.784 17.5757 120.744 17.1683 122.34 17.171C139.151 17.1996 155.962 17.1536 173.009 17.1288Z" fill="#F4A83B"/>
<path d="M110.575 298.201C104.146 293.947 97.8264 289.867 91.6403 285.594C90.5933 284.87 89.6156 283.383 89.4554 282.139C87.1875 264.53 85.0694 246.901 82.9083 229.278C81.7905 220.163 80.658 211.05 79.5375 201.935C79.4769 201.442 79.4646 200.943 79.4034 200.069C83.9301 202.994 88.2379 205.633 92.37 208.522C93.9725 209.643 95.2319 209.783 96.8273 208.765C103.308 204.633 109.863 200.615 116.301 196.417C122.307 192.501 128.199 188.411 134.142 184.399C134.576 184.107 134.983 183.692 135.463 183.568C137.034 183.161 143.423 188.377 143.427 190.028C143.471 206.569 143.487 223.109 143.585 239.65C143.594 241.185 143.118 242.019 141.763 242.703C136.85 245.187 131.949 247.703 127.151 250.397C126.185 250.939 125.3 252.22 125.037 253.319C123.924 257.973 123.06 262.687 122.015 267.816C117.479 264.484 113.045 261.415 108.854 258.044C107.473 256.933 106.48 256.916 105.542 258.016C104.527 259.205 104.523 260.544 106.017 261.603C110.44 264.739 114.869 267.87 119.214 271.112C119.909 271.631 120.703 272.806 120.574 273.519C118.919 282.695 117.105 291.843 115.275 301.289C113.612 300.199 112.171 299.255 110.575 298.201Z" fill="#F4A83B"/>
<path d="M261.952 159.845C263.027 165.463 260.595 168.465 256.015 171.274C238.722 181.883 221.73 192.981 204.578 203.821C203.929 204.231 202.553 204.226 201.915 203.807C190.882 196.549 179.945 189.145 168.896 181.911C167.031 180.691 166.789 179.703 167.663 177.726C169.21 174.227 170.409 170.574 171.825 166.794C175.502 168.342 179.085 169.709 182.533 171.356C184.655 172.369 186.469 172.38 188.713 171.564C198.323 168.071 208.037 164.863 217.674 161.443C220.311 160.508 222.797 159.538 225.225 162.303C227.285 159.091 228.889 155.953 231.081 153.301C236.034 147.31 238.485 140.495 238.436 132.822C238.4 127.178 240.572 123.247 245.95 121.158C247.367 120.607 248.608 119.602 250.253 118.611C250.321 120.093 250.372 121.176 250.44 122.654C255.005 121.158 257.629 117.259 261.952 114.863C261.952 129.981 261.952 144.782 261.952 159.845Z" fill="#F4A83B"/>
<path d="M57.5829 135.295C57.746 141.359 59.2842 146.613 63.046 151.285C65.7157 154.6 67.8045 158.383 70.3769 162.299C73.4296 158.815 76.6054 161.078 79.6832 162.118C89.2072 165.336 98.6731 168.725 108.193 171.956C109.146 172.279 110.425 172.266 111.361 171.908C115.502 170.319 119.574 168.548 123.866 166.761C125.449 171.043 127.063 175.178 128.427 179.394C128.601 179.93 127.628 181.131 126.911 181.616C117.636 187.89 108.303 194.078 99.004 200.317C96.8289 201.776 94.7256 203.343 92.6104 204.845C73.3372 192.538 54.0926 180.264 34.8892 167.925C34.2362 167.506 33.6232 166.444 33.6199 165.678C33.5479 148.873 33.565 132.068 33.565 114.958C37.7382 117.104 40.4378 121.055 44.9413 122.762C45.0394 121.235 45.1107 120.124 45.2103 118.574C48.8483 120.751 52.3084 122.734 55.6462 124.905C56.2121 125.273 56.3813 126.43 56.5109 127.257C56.9169 129.849 57.2164 132.458 57.5829 135.295Z" fill="#F4A83B"/>
<path d="M33.6152 215.021C33.6154 200.621 33.6154 186.485 33.6154 171.871C35.028 172.788 36.0292 173.428 37.0197 174.083C48.8318 181.9 60.6635 189.688 72.4176 197.591C73.5026 198.32 74.6987 199.727 74.8201 200.923C77.5923 228.242 80.2223 255.575 82.8753 282.906C82.934 283.51 82.9505 284.119 83.002 284.982C82.4982 284.747 82.1123 284.652 81.8349 284.425C66.4105 271.782 51.0087 259.11 35.5563 246.502C34.1424 245.348 33.5406 244.179 33.5621 242.319C33.666 233.308 33.6126 224.296 33.6152 215.021ZM46.5442 197.42C46.5439 195.67 46.5437 193.92 46.543 192.17C46.5411 187.608 45.7954 186.608 41.0199 184.984C41.0199 185.73 41.0203 186.403 41.0198 187.075C41.0062 204.051 41.2185 221.031 40.8282 237.998C40.7238 242.535 43.1451 244.146 46.544 246.412C46.544 229.926 46.544 213.936 46.5442 197.42Z" fill="#F4A83B"/>
<path d="M246.141 182.291C251.301 178.836 256.306 175.488 261.719 171.868C261.81 173.072 261.914 173.801 261.914 174.531C261.918 197.294 261.928 220.058 261.858 242.822C261.855 243.798 261.382 245.101 260.666 245.698C245.132 258.641 229.532 271.506 213.943 284.383C213.63 284.641 213.283 284.856 212.406 285.479C212.939 279.838 213.393 274.762 213.901 269.692C215.569 253.062 217.277 236.436 218.924 219.804C219.554 213.446 219.988 207.069 220.7 200.722C220.811 199.727 221.728 198.552 222.608 197.956C230.358 192.707 238.183 187.57 246.141 182.291ZM254.573 233.671C254.573 217.48 254.573 201.29 254.573 184.969C250.297 186.383 248.832 188.648 248.918 192.882C249.26 209.572 249.137 226.272 249.186 242.968C249.189 243.953 249.187 244.938 249.187 245.999C253.708 244.183 255.428 241.214 254.601 236.813C254.442 235.969 254.575 235.069 254.573 233.671Z" fill="#F4A83B"/>
<path d="M145.588 321.549C138.239 316.951 131.089 312.399 123.848 307.998C122.151 306.967 121.782 305.972 122.156 304.02C125.033 289.006 127.795 273.97 130.493 258.924C130.779 257.325 131.489 256.57 132.881 255.915C137.306 253.834 141.624 251.526 146.065 249.481C146.997 249.052 148.454 248.99 149.366 249.414C154.038 251.584 158.649 253.896 163.185 256.34C164.092 256.829 165.003 258.025 165.192 259.03C168.054 274.31 170.818 289.61 173.503 304.923C173.637 305.685 173.089 306.982 172.447 307.399C164.974 312.254 157.382 316.927 149.922 321.8C148.295 322.862 147.106 322.79 145.588 321.549Z" fill="#F4A83B"/>
<path d="M176.543 265.597C175.561 266.329 174.729 266.948 173.52 267.848C172.514 262.85 171.691 258.172 170.566 253.568C170.263 252.325 169.29 250.882 168.206 250.257C163.669 247.643 159.002 245.248 154.319 242.898C152.815 242.142 152.177 241.3 152.182 239.514C152.232 223.158 152.135 206.802 152.208 190.446C152.213 189.402 153.02 188.002 153.891 187.379C159.733 183.194 159.758 183.268 165.73 187.293C174.864 193.447 183.996 199.604 193.185 205.675C194.78 206.729 195.238 207.754 194.924 209.708C192.461 225.066 190.187 240.454 187.715 255.81C187.512 257.072 186.509 258.464 185.472 259.282C182.663 261.497 179.635 263.435 176.543 265.597Z" fill="#F4A83B"/>
<path d="M183.718 59.462C185.207 48.0491 186.675 36.8688 188.195 25.2927C189.206 25.6827 190.063 25.9732 190.887 26.3375C199.839 30.2948 208.778 34.2824 217.744 38.2094C219.116 38.8105 219.715 39.3721 219.361 41.1115C216.87 53.3581 214.565 65.6423 212.097 77.8937C211.868 79.0338 211.189 80.4753 210.27 81.0248C199.702 87.3396 189.047 93.5088 178.079 99.9131C179.968 86.39 181.833 73.0424 183.718 59.462Z" fill="#F4A83B"/>
<path d="M108.983 94.8726C101.105 90.3025 93.362 85.8811 85.7076 81.3114C84.7435 80.7358 83.8184 79.4664 83.5964 78.3722C81.0063 65.6072 78.5537 52.8144 76.0721 40.0275C76.0245 39.7822 76.0662 39.5197 76.0662 39.0397C86.2717 34.4327 96.5069 29.8123 107.158 25.0042C110.603 50.0279 113.987 74.6054 117.467 99.8876C114.298 98.0169 111.721 96.4964 108.983 94.8726Z" fill="#F4A83B"/>
<path d="M177.286 285.601C176.533 281.508 175.748 277.647 175.19 273.753C175.079 272.977 175.6 271.768 176.232 271.282C180.39 268.078 184.661 265.022 188.888 261.907C191.178 260.219 192.328 258.031 192.821 255.126C195.283 240.64 197.965 226.191 200.616 211.738C200.762 210.939 201.116 209.903 201.72 209.508C206.314 206.506 210.994 203.636 216.16 200.404C215.592 205.443 215.117 209.983 214.562 214.513C212.369 232.405 210.152 250.295 207.938 268.185C207.347 272.961 206.774 277.741 206.098 282.505C205.975 283.371 205.626 284.518 204.986 284.948C196.871 290.415 188.683 295.774 180.157 301.396C179.186 296.04 178.26 290.931 177.286 285.601Z" fill="#F4A83B"/>
</svg>
